<svg width="23" height="20" viewBox="0 0 23 20" fill="none" xmlns="http://www.w3.org/2000/svg">
<path d="M7.90625 11.8887C8.0155 13.0812 9.09938 14.01 11.0429 14.12V15H11.9054V14.1138C13.9179 13.9913 15.0938 13.0563 15.0938 11.6988C15.0938 10.465 14.1939 9.82875 12.5853 9.49875L11.9054 9.35875V6.9625C12.7679 7.0475 13.317 7.4575 13.4492 8.025H14.9615C14.8523 6.87625 13.7195 5.9775 11.9054 5.88V5H11.0429V5.89875C9.32506 6.045 8.1535 6.94375 8.1535 8.215C8.1535 9.34 9.02462 10.055 10.4722 10.3488L11.0429 10.4712V13.0138C10.1588 12.8975 9.57375 12.4762 9.4415 11.8887H7.90625ZM11.0357 9.18125C10.1876 9.01 9.72756 8.66125 9.72756 8.13625C9.72756 7.54875 10.2235 7.10875 11.0429 6.98V9.18L11.0357 9.18125ZM12.0304 10.6725C13.0611 10.88 13.5369 11.2162 13.5369 11.81C13.5369 12.4875 12.9447 12.9525 11.9054 13.0375V10.6475L12.0304 10.6725Z" fill="black"/>
<path d="M11.5 18.75C8.83126 18.75 6.27182 17.8281 4.38474 16.1872C2.49765 14.5462 1.4375 12.3206 1.4375 10C1.4375 7.67936 2.49765 5.45376 4.38474 3.81282C6.27182 2.17187 8.83126 1.25 11.5 1.25C14.1687 1.25 16.7282 2.17187 18.6153 3.81282C20.5023 5.45376 21.5625 7.67936 21.5625 10C21.5625 12.3206 20.5023 14.5462 18.6153 16.1872C16.7282 17.8281 14.1687 18.75 11.5 18.75ZM11.5 20C14.55 20 17.4751 18.9464 19.6317 17.0711C21.7884 15.1957 23 12.6522 23 10C23 7.34784 21.7884 4.8043 19.6317 2.92893C17.4751 1.05357 14.55 0 11.5 0C8.45001 0 5.52494 1.05357 3.36827 2.92893C1.2116 4.8043 0 7.34784 0 10C0 12.6522 1.2116 15.1957 3.36827 17.0711C5.52494 18.9464 8.45001 20 11.5 20Z" fill="black"/>
<path d="M11.5 16.875C9.40313 16.875 7.39215 16.1507 5.90944 14.8614C4.42673 13.572 3.59375 11.8234 3.59375 10C3.59375 8.17664 4.42673 6.42795 5.90944 5.13864C7.39215 3.84933 9.40313 3.125 11.5 3.125C13.5969 3.125 15.6079 3.84933 17.0906 5.13864C18.5733 6.42795 19.4062 8.17664 19.4062 10C19.4062 11.8234 18.5733 13.572 17.0906 14.8614C15.6079 16.1507 13.5969 16.875 11.5 16.875ZM11.5 17.5C12.6327 17.5 13.7542 17.306 14.8006 16.9291C15.8471 16.5522 16.7979 15.9997 17.5988 15.3033C18.3997 14.6069 19.035 13.7801 19.4685 12.8701C19.9019 11.9602 20.125 10.9849 20.125 10C20.125 9.01509 19.9019 8.03982 19.4685 7.12987C19.035 6.21993 18.3997 5.39314 17.5988 4.6967C16.7979 4.00026 15.8471 3.44781 14.8006 3.0709C13.7542 2.69399 12.6327 2.5 11.5 2.5C9.21251 2.5 7.01871 3.29018 5.4012 4.6967C3.7837 6.10322 2.875 8.01088 2.875 10C2.875 11.9891 3.7837 13.8968 5.4012 15.3033C7.01871 16.7098 9.21251 17.5 11.5 17.5Z" fill="black"/>
</svg>
