<svg width="20" height="20" viewBox="0 0 20 20" fill="none" xmlns="http://www.w3.org/2000/svg">
<path d="M2.25 16.25C1.61667 15.5167 1.10833 14.7 0.725 13.8C0.341667 12.9 0.1 11.95 0 10.95H2.05C2.15 11.6833 2.33333 12.379 2.6 13.037C2.86667 13.6957 3.21667 14.3 3.65 14.85L2.25 16.25ZM0 8.95C0.133333 7.95 0.383333 7 0.75 6.1C1.11667 5.2 1.61667 4.38333 2.25 3.65L3.65 5.05C3.21667 5.6 2.86667 6.204 2.6 6.862C2.33333 7.52067 2.15 8.21667 2.05 8.95H0ZM8.95 19.9C7.95 19.8 7.00433 19.5583 6.113 19.175C5.221 18.7917 4.4 18.3 3.65 17.7L5.05 16.25C5.63333 16.6833 6.246 17.0417 6.888 17.325C7.52933 17.6083 8.21667 17.8 8.95 17.9V19.9ZM5.1 3.65L3.65 2.2C4.4 1.6 5.221 1.10833 6.113 0.725C7.00433 0.341667 7.96667 0.1 9 0V2C8.25 2.1 7.55 2.29167 6.9 2.575C6.25 2.85833 5.65 3.21667 5.1 3.65ZM7.5 14.45V5.45L14.5 9.95L7.5 14.45ZM11 19.9V17.9C13.0167 17.6167 14.6877 16.725 16.013 15.225C17.3377 13.725 18 11.9667 18 9.95C18 7.93333 17.3377 6.175 16.013 4.675C14.6877 3.175 13.0167 2.28333 11 2V0C13.5667 0.283333 15.7083 1.36667 17.425 3.25C19.1417 5.13333 20 7.36667 20 9.95C20 12.5333 19.1417 14.7667 17.425 16.65C15.7083 18.5333 13.5667 19.6167 11 19.9Z" fill="black"/>
</svg>
