<svg width="23" height="20" viewBox="0 0 23 20" fill="none" xmlns="http://www.w3.org/2000/svg">
<path d="M19.1666 18.3333H13.4166C13.145 18.3333 12.9174 18.2534 12.7338 18.0937C12.5501 17.934 12.4582 17.7361 12.4582 17.5V12.5C12.4582 12.2638 12.5501 12.0659 12.7338 11.9062C12.9174 11.7465 13.145 11.6666 13.4166 11.6666H19.1666C19.4381 11.6666 19.6657 11.7465 19.8494 11.9062C20.0331 12.0659 20.1249 12.2638 20.1249 12.5V14.1666L22.0416 12.5V17.5L20.1249 15.8333V17.5C20.1249 17.7361 20.0331 17.934 19.8494 18.0937C19.6657 18.2534 19.4381 18.3333 19.1666 18.3333ZM11.5478 7.08329C10.6214 7.08329 9.83081 7.36801 9.17594 7.93746C8.52108 8.5069 8.19365 9.1944 8.19365 9.99996C8.19365 10.6666 8.40928 11.25 8.84053 11.75C9.27178 12.25 9.83879 12.5972 10.5416 12.7916V10.9166C10.4138 10.8055 10.31 10.6632 10.2301 10.4895C10.1503 10.3159 10.1103 10.1527 10.1103 9.99996C10.1103 9.65274 10.2501 9.3576 10.5296 9.11454C10.8091 8.87149 11.1485 8.74996 11.5478 8.74996C11.9471 8.74996 12.2825 8.87149 12.5541 9.11454C12.8256 9.3576 12.9614 9.65274 12.9614 9.99996H14.902C14.902 9.1944 14.5746 8.5069 13.9197 7.93746C13.2648 7.36801 12.4742 7.08329 11.5478 7.08329ZM8.86449 18.3333L8.48115 15.6666C8.27351 15.5972 8.07785 15.5138 7.89417 15.4166C7.71049 15.3194 7.53081 15.2152 7.35511 15.1041L4.50407 16.1458L1.86865 12.1875L4.33636 10.5625C4.32039 10.4652 4.3124 10.3715 4.3124 10.2812V9.71871C4.3124 9.62843 4.32039 9.53468 4.33636 9.43746L1.86865 7.81246L4.50407 3.85413L7.35511 4.89579C7.53081 4.78468 7.71449 4.68051 7.90615 4.58329C8.09782 4.48607 8.28949 4.40274 8.48115 4.33329L8.86449 1.66663H14.1353L14.5187 4.33329C14.7263 4.40274 14.922 4.48607 15.1056 4.58329C15.2893 4.68051 15.469 4.78468 15.6447 4.89579L18.4957 3.85413L21.1312 7.81246L18.6634 9.43746C18.6794 9.53468 18.6874 9.62843 18.6874 9.71871V9.99996H16.7707C16.7548 9.73607 16.7308 9.50343 16.6989 9.30204C16.6669 9.10065 16.619 8.90968 16.5551 8.72913L18.6155 7.37496L17.6812 5.95829L15.3093 6.83329C14.9579 6.51385 14.5706 6.24649 14.1473 6.03121C13.724 5.81593 13.2648 5.65274 12.7697 5.54163L12.4582 3.33329H10.5655L10.2301 5.54163C9.73497 5.65274 9.27577 5.81593 8.85251 6.03121C8.42924 6.24649 8.04192 6.5069 7.69053 6.81246L5.31865 5.95829L4.38428 7.37496L6.44469 8.70829C6.36483 8.91663 6.30893 9.12496 6.27699 9.33329C6.24504 9.54163 6.22907 9.76385 6.22907 9.99996C6.22907 10.2222 6.24504 10.4375 6.27699 10.6458C6.30893 10.8541 6.36483 11.0625 6.44469 11.2708L4.38428 12.625L5.31865 14.0416L7.69053 13.1666C8.07386 13.5138 8.50511 13.8055 8.98428 14.0416C9.46344 14.2777 9.98254 14.4305 10.5416 14.5V18.3333H8.86449Z" fill="black"/>
</svg>
